<svg width="300" height="50" viewBox="0 0 300 50" xmlns="http://www.w3.org/2000/svg">
    <title>BlaBlaCar</title>
    <g>
        <path d="M139.49 32.857c.204 2.143 0 4.082-.612 5.816-.613 1.735-1.633 3.164-2.858 4.388-1.53 1.43-3.163 2.552-5.102 3.267-1.836.714-4.285 1.224-7.347 1.632l-17.243 1.836-4.49-43.163L117.04 5c3.164-.306 5.613-.51 7.246-.408 1.632.102 3.265.408 4.694 1.02 1.632.715 2.857 1.633 3.775 2.96.918 1.326 1.43 2.857 1.633 4.693.204 2.143-.102 4.082-1.02 5.817-.92 1.734-2.246 3.163-3.98 4.08v.205c2.755.306 5 1.225 6.734 2.755 1.94 1.53 3.062 3.776 3.368 6.735M123.673 16.53c-.102-.714-.306-1.428-.816-2.04-.408-.714-1.02-1.123-1.837-1.43-.714-.203-1.632-.305-2.55-.203-1.02.102-2.45.204-4.388.408l-.715.102.92 9.082 1.325-.103c1.837-.204 3.164-.306 3.878-.51.714-.102 1.53-.408 2.245-.817.816-.51 1.326-1.122 1.632-1.836.41-.817.41-1.633.306-2.653m4.592 17.246c-.102-1.327-.51-2.347-1.122-3.062-.612-.714-1.53-1.224-2.653-1.428-.714-.204-1.633-.204-2.755-.102-1.123.102-2.653.204-4.592.408l-2.04.204 1.12 10.816.614-.102c2.857-.306 4.796-.51 5.816-.612 1.123-.204 2.143-.51 3.265-1.122.92-.51 1.633-1.225 1.94-2.143.407-.817.51-1.735.407-2.857M140.587 1.682l9.845-1.03 4.595 43.946-9.845 1.03zM179.796 38.57c-.612.614-1.225 1.226-1.633 1.736-.51.51-1.122 1.02-2.04 1.633-.817.51-1.633.917-2.45 1.223-.816.306-1.938.51-3.47.715-2.754.306-5.203-.41-7.244-2.04-2.042-1.736-3.266-3.98-3.47-6.838-.204-2.347 0-4.286.816-5.816.816-1.53 2.04-2.857 3.674-3.878 1.734-1.02 3.775-1.837 6.224-2.45 2.45-.61 5.102-1.12 7.96-1.632v-.204c-.205-1.734-.92-2.857-2.348-3.47-1.326-.51-3.367-.713-5.918-.407-1.122.102-2.55.51-3.98 1.02-1.53.613-2.96 1.327-4.387 2.143l-.816.102-.816-7.653c.918-.408 2.45-.918 4.592-1.53 2.143-.613 4.286-1.02 6.53-1.225 5.41-.612 9.49-.102 12.245 1.43 2.653 1.53 4.184 4.182 4.592 7.958l2.245 21.53-9.796 1.02-.51-3.367zm-.51-4.897l-.715-6.632c-1.63.307-2.958.613-3.978.817-1.02.204-2.04.612-2.96 1.02-.816.41-1.428.92-1.836 1.53-.408.715-.612 1.532-.51 2.552.102 1.53.714 2.448 1.53 2.958.92.51 2.04.613 3.674.41.816-.104 1.734-.41 2.55-.818.817-.408 1.633-1.02 2.246-1.837z" fill="#0086BF"/>
        <path d="M38.163 32.857c.204 2.143 0 4.082-.612 5.816-.61 1.735-1.632 3.164-2.856 4.388-1.53 1.43-3.163 2.552-5.102 3.267-1.837.714-4.286 1.224-7.347 1.632L5 49.795.51 6.633 15.714 5c3.164-.306 5.613-.51 7.245-.408 1.632.102 3.264.408 4.693 1.02 1.633.715 2.857 1.633 3.776 2.96.917 1.326 1.427 2.857 1.63 4.693.205 2.143-.1 4.082-1.02 5.817-.918 1.734-2.244 3.163-3.98 4.08v.205c2.756.306 5 1.225 6.736 2.755 2.04 1.53 3.06 3.776 3.367 6.735M22.45 16.53c-.103-.714-.307-1.428-.817-2.04-.41-.714-1.02-1.123-1.837-1.43-.714-.203-1.633-.305-2.55-.203-1.022.102-2.45.204-4.39.408l-.713.102.918 9.082 1.328-.103c1.836-.204 3.163-.306 3.877-.51.715-.102 1.53-.408 2.245-.817.817-.51 1.327-1.122 1.633-1.836.306-.817.408-1.633.306-2.653m4.59 17.246c-.1-1.327-.51-2.347-1.122-3.062-.612-.714-1.53-1.224-2.653-1.428-.714-.204-1.632-.204-2.755-.102-1.122.102-2.653.204-4.592.408l-2.04.204L15 40.612l.612-.102c2.857-.306 4.796-.51 5.817-.714 1.12-.204 2.14-.51 3.264-1.123.918-.51 1.633-1.224 1.94-2.142.407-.714.51-1.734.407-2.754M39.38 1.647l9.844-1.03 4.59 43.946-9.844 1.03zM78.57 38.57c-.61.614-1.223 1.226-1.63 1.736-.51.51-1.124 1.02-2.042 1.633-.816.51-1.633.917-2.45 1.223-.815.306-1.938.51-3.468.715-2.756.306-5.204-.41-7.245-2.04-2.04-1.736-3.266-3.98-3.572-6.838-.204-2.347 0-4.286.817-5.816.816-1.53 2.04-2.857 3.673-3.878 1.735-1.02 3.776-1.837 6.225-2.45 2.45-.61 5.102-1.12 7.96-1.632v-.204c-.205-1.734-.92-2.857-2.348-3.47-1.327-.51-3.368-.61-5.92-.407-1.12.102-2.55.51-3.978 1.02-1.53.613-2.96 1.327-4.388 2.143l-.816.102-.817-7.653c.92-.408 2.45-.918 4.593-1.53 2.143-.613 4.286-1.02 6.53-1.225 5.51-.612 9.49-.102 12.246 1.43 2.652 1.53 4.182 4.182 4.59 7.958l2.246 21.53-9.796 1.02-.41-3.367zm-.51-4.897l-.713-6.632c-1.633.307-2.96.613-3.98.817-1.02.204-2.04.612-2.96 1.02-.815.41-1.427.92-1.836 1.53-.407.715-.61 1.532-.51 2.552.103 1.53.613 2.448 1.532 2.958.918.51 2.04.613 3.673.41.817-.104 1.735-.41 2.55-.92.818-.306 1.532-.918 2.246-1.735z" fill="#00A87E"/>
        <path d="M262.755 43.265c-.714.613-1.326 1.123-1.837 1.53-.51.41-1.224.92-2.142 1.327-.92.41-1.735.817-2.552 1.02-.816.205-2.04.307-3.57.307-2.858 0-5.205-.92-7.042-2.858-1.836-1.94-2.857-4.286-2.857-7.143 0-2.348.51-4.287 1.43-5.715.917-1.43 2.346-2.653 4.08-3.47 1.837-.918 3.98-1.53 6.43-1.836 2.55-.308 5.203-.614 8.06-.818v-.204c0-1.735-.612-2.96-1.94-3.673-1.325-.715-3.264-1.02-5.815-1.02-1.224 0-2.55.203-4.082.612-1.53.408-3.06 1.02-4.59 1.632h-.818v-7.756c1.02-.306 2.55-.612 4.796-1.02 2.245-.408 4.388-.613 6.633-.613 5.51 0 9.49.92 12.04 2.757 2.55 1.836 3.775 4.59 3.775 8.367l.102 21.735h-9.898l-.205-3.165zm0-5v-6.632c-1.735.204-3.06.306-4.082.408-1.02.103-2.04.41-3.06.715-.92.306-1.53.816-2.042 1.43-.51.61-.713 1.427-.713 2.448 0 1.53.408 2.55 1.225 3.06.816.51 2.04.817 3.57.817.92 0 1.736-.204 2.654-.612.816-.306 1.735-.918 2.45-1.633zM299.286 24.082h-.817c-.41-.102-.92-.204-1.633-.306-.715-.103-1.53-.103-2.347-.103-1.02 0-2.143.205-3.266.51-1.122.307-2.244.715-3.367 1.123l.102 21.43h-10l-.103-31.94h10v4.592c.408-.408 1.123-.92 1.837-1.633.816-.612 1.53-1.122 2.245-1.53.713-.41 1.53-.817 2.55-1.123.918-.306 1.837-.51 2.755-.51h1.122c.41 0 .715 0 1.123.102l-.204 9.388zM224.082 48.06c-6.327 0-11.43-1.938-15.102-5.713-3.776-3.878-5.613-9.184-5.613-16.225 0-6.734 1.837-12.04 5.613-16.122 3.775-3.98 8.775-6.02 15.102-6.02 1.734 0 3.163.102 4.59.306 1.328.204 2.655.408 3.88.816 1.02.306 2.04.714 3.162 1.122 1.123.51 2.04.92 2.755 1.225v10.1h-1.123c-.51-.407-1.123-1.02-1.94-1.632-.815-.612-1.63-1.224-2.652-1.836-1.02-.613-2.04-1.123-3.265-1.53-1.225-.41-2.45-.613-3.674-.613-1.53 0-2.96.203-4.183.713-1.327.51-2.45 1.327-3.674 2.55-1.02 1.124-1.94 2.552-2.552 4.39-.714 1.836-1.02 3.978-1.02 6.53 0 2.653.408 4.897 1.122 6.632.714 1.837 1.633 3.265 2.755 4.286 1.123 1.02 2.347 1.838 3.674 2.246 1.325.51 2.754.714 4.08.714 1.43 0 2.756-.204 3.98-.714 1.224-.51 2.347-1.02 3.163-1.53.92-.613 1.735-1.225 2.45-1.838.714-.612 1.326-1.122 1.836-1.632h1.02v10c-.817.408-1.633.816-2.654 1.224-1.02.51-2.04.92-3.163 1.225-1.326.408-2.55.714-3.673.918-1.327.306-2.858.408-4.898.408" fill="#F53F5B"/>
    </g>
</svg>