<svg height="39px" version="1.1" viewBox="0 0 102 39" width="102px" xmlns:xlink="http://www.w3.org/1999/xlink" xmlns="http://www.w3.org/2000/svg">
<g fill="#3c465a">
<rect height="22" width="6" x="27" y="9"></rect>
<path d="M18,10c-1.4-0.8-3.2-1.4-5.1-1.4c-6.6,0-12,5.1-12,11.5c0,6.3,5.4,11.1,12,11.1c2,0,3.8-0.4,5.1-1.2v1h6V2h-6
	V10z M13.1,26.4c-3.4,0-6.2-2.8-6.2-6.3v0c0,0,0,0,0,0c0,0,0,0,0,0v0c0-3.5,2.8-6.3,6.2-6.3c1.1,0,2.2,0.3,3.1,0.9
	c0.7,0.4,1.2,0.9,1.7,1.5v8C16.7,25.5,15,26.4,13.1,26.4z"></path>
<rect height="22" width="6" x="44" y="9"></rect>
<polygon points="64.5,21.2 59.5,9 53,9 62.3,31 66.6,31 76,9 69.5,9 "></polygon>
<path d="M94.5,9l-4.9,12.2L84.5,9H78l8,18.6c0.3,0.7,0.3,1.6,0,2.3L82,39h6.5l3.3-7.9h0L101,9H94.5z"></path>
<circle cx="38" cy="12" r="3.2"></circle>
<circle cx="47" cy="4" r="3.2"></circle>
</g>
</svg>