<svg height="38" viewBox="0 0 38 38" width="38" xmlns="http://www.w3.org/2000/svg">
  <style>
    path { fill: currentColor; }
    @media (prefers-color-scheme: dark) {
        path { fill: white; }
    }
  </style>
  <title>GitHub</title>
  <path d="m18.9982504 0c-10.4905614 0-18.9982504 8.72179895-18.9982504 19.4814349 0 8.6069913 5.44356794 15.9080447 12.9936462 18.4840429.9506124.179387 1.2970318-.4221576 1.2970318-.9387923 0-.4616227-.0163295-1.6874343-.0256607-3.3126811-5.28493811 1.1767791-6.40001224-2.6118756-6.40001224-2.6118756-.86429908-2.2507097-2.11000951-2.8498625-2.11000951-2.8498625-1.72509899-1.2078728.1306363-1.1839546.1306363-1.1839546 1.90705669.1375301 2.91015685 2.0079392 2.91015685 2.0079392 1.6947727 2.9766293 4.4474662 2.1167673 5.5298812 1.6180713.1726265-1.2581013.6636791-2.1167673 1.206053-2.6035042-4.2188526-.4915206-8.65465485-2.163408-8.65465485-9.6283016 0-2.1263346.74066116-3.8663891 1.95604531-5.227339-.19595445-.4927164-.84796956-2.4743455.18662328-5.15558413 0 0 1.59446266-.52381022 5.22428556 1.99717593 1.5151478-.43292075 3.1411032-.64818523 4.756561-.65655662 1.6142914.00837139 3.2390804.22363587 4.756561.65655662 3.6274901-2.52098615 5.21962-1.99717593 5.21962-1.99717593 1.0369256 2.68123863.3849105 4.66286773.1901224 5.15558413 1.217717 1.3609499 1.9525462 3.1010044 1.9525462 5.227339 0 7.4840282-4.4428006 9.1308015-8.6744836 9.6127547.681175.6015446 1.2888671 1.7902829 1.2888671 3.6080718 0 2.6035042-.0233279 4.7047247-.0233279 5.3433426 0 .5214184.3429202 1.1277467 1.3063629.9375964 7.5442463-2.5819778 12.9831487-9.8782476 12.9831487-18.482847 0-10.75963595-8.507689-19.4814349-19.0017496-19.4814349" fill="#151513" fill-rule="evenodd"/>
</svg>
