<?xml version="1.0" encoding="utf-8"?>
<!-- Generator: Adobe Illustrator 16.0.0, SVG Export Plug-In . SVG Version: 6.00 Build 0)  -->
<!DOCTYPE svg PUBLIC "-//W3C//DTD SVG 1.1//EN" "http://www.w3.org/Graphics/SVG/1.1/DTD/svg11.dtd">
<svg version="1.1" id="Layer_1" xmlns="http://www.w3.org/2000/svg" xmlns:xlink="http://www.w3.org/1999/xlink" x="0px" y="0px"
	 width="80px" height="26px" viewBox="0 0 80 26" enable-background="new 0 0 80 26" xml:space="preserve">
<g>
	<path fill="#000" d="M64.242,17.612c-0.145-0.334-0.309-0.673-0.487-1.019c-0.182-0.343-0.354-0.678-0.518-1.005
		c-0.127-0.254-0.245-0.534-0.354-0.843c-0.092-0.253-0.185-0.551-0.284-0.897c-0.101-0.343-0.178-0.722-0.232-1.14
		c0.272-0.326,0.48-0.593,0.625-0.8c0.146-0.209,0.252-0.386,0.327-0.531c0.073-0.145,0.126-0.263,0.162-0.354
		c0.035-0.181-0.017-0.357-0.162-0.529c-0.146-0.172-0.337-0.331-0.572-0.477c-0.29-0.144-0.617-0.149-0.977-0.013
		c-0.362,0.136-0.717,0.34-1.061,0.611c-0.343,0.273-0.644,0.575-0.895,0.91c-0.255,0.337-0.418,0.629-0.49,0.884
		c-0.091,0.309-0.068,0.58,0.068,0.814c0.136,0.236,0.185,0.426,0.148,0.571c-0.017,0.053-0.118,0.211-0.298,0.476
		c-0.183,0.262-0.379,0.561-0.602,0.896c-0.215,0.336-0.431,0.661-0.649,0.977c-0.177,0.261-0.309,0.447-0.413,0.593
		c-0.205,0.229-0.419,0.466-0.659,0.727c-0.553,0.596-1.15,1.173-1.793,1.725c-0.642,0.553-1.302,1.023-1.97,1.413
		c-0.671,0.39-1.314,0.585-1.929,0.585c-0.292,0-0.576-0.042-0.856-0.124c-0.28-0.08-0.529-0.218-0.748-0.407
		c-0.215-0.189-0.397-0.438-0.543-0.746c-0.145-0.308-0.226-0.689-0.244-1.141c0.271-0.199,0.589-0.422,0.95-0.667
		c0.363-0.243,0.743-0.501,1.143-0.774c0.363-0.253,0.746-0.534,1.154-0.843c0.407-0.307,0.793-0.651,1.155-1.031
		c0.361-0.38,0.674-0.805,0.937-1.277c0.264-0.47,0.423-0.987,0.475-1.548c0.037-0.507-0.098-0.933-0.407-1.276
		c-0.307-0.345-0.806-0.516-1.494-0.516c-0.724,0-1.445,0.226-2.158,0.678c-0.717,0.453-1.359,1.023-1.929,1.711
		c-0.57,0.688-1.054,1.444-1.44,2.269c-0.323,0.682-0.529,1.332-0.635,1.957c-0.321,0.38-0.655,0.762-1.021,1.153
		c-0.429,0.453-0.848,0.87-1.265,1.251c-0.417,0.38-0.819,0.684-1.211,0.908c-0.387,0.228-0.72,0.322-0.991,0.286
		c-0.344-0.019-0.633-0.127-0.868-0.325c-0.2-0.182-0.367-0.477-0.503-0.884c-0.134-0.407-0.149-1.001-0.042-1.781
		c0.471-1.085,0.896-2.108,1.277-3.068c0.38-0.96,0.706-1.812,0.979-2.553c0.311-0.851,0.58-1.639,0.814-2.364
		c0.108-0.309,0.194-0.604,0.261-0.884c0.06-0.281,0.128-0.566,0.201-0.855c0.144,0,0.287-0.004,0.42-0.014
		c0.139-0.009,0.26-0.015,0.367-0.015c0.582,0,1.089,0.019,1.522,0.055c0.435,0.037,0.812,0.073,1.124,0.108
		c0.32,0.038,0.591,0.083,0.819,0.137c0.225,0.055,0.429,0.091,0.611,0.108c0.18,0.037,0.343,0,0.487-0.108
		c0.146-0.108,0.25-0.24,0.313-0.395c0.062-0.152,0.089-0.304,0.081-0.447c-0.009-0.146-0.078-0.236-0.204-0.272
		c-0.126-0.036-0.318-0.104-0.57-0.204c-0.253-0.099-0.588-0.199-1.005-0.3c-0.417-0.1-0.92-0.19-1.507-0.271
		c-0.59-0.082-1.262-0.122-2.023-0.122c0.18-0.924,0.28-1.686,0.298-2.283c0.018-0.597-0.018-0.968-0.108-1.114
		c-0.09-0.109-0.234-0.176-0.434-0.204c-0.201-0.026-0.408-0.026-0.627,0c-0.218,0.028-0.421,0.073-0.611,0.136
		c-0.189,0.064-0.312,0.141-0.367,0.23c-0.18,0.255-0.385,0.703-0.612,1.345c-0.224,0.643-0.454,1.399-0.691,2.269
		c-0.31,0.054-0.619,0.1-0.936,0.136c-0.319,0.036-0.65,0.063-0.993,0.082c-0.472,0.017-0.904,0.012-1.303-0.014
		c-0.398-0.027-0.769-0.06-1.114-0.096c-0.11,0-0.231,0.05-0.366,0.149c-0.139,0.099-0.25,0.217-0.342,0.353
		c-0.091,0.137-0.143,0.272-0.164,0.407c-0.016,0.137,0.049,0.241,0.191,0.312c0.255,0.127,0.639,0.259,1.155,0.396
		c0.517,0.135,1.064,0.203,1.645,0.203c0.253,0,0.534-0.019,0.842-0.054c0.309-0.037,0.614-0.072,0.924-0.109
		c-0.253,1.051-0.495,2.143-0.72,3.274c-0.228,1.132-0.432,2.191-0.611,3.179c-0.025,0.14-0.045,0.259-0.069,0.393
		c-0.091,0.083-0.186,0.186-0.285,0.328c-0.236,0.361-0.579,0.838-1.033,1.425c-0.45,0.59-0.933,1.164-1.438,1.725
		c-0.508,0.563-1.01,1.042-1.507,1.44c-0.497,0.4-0.909,0.599-1.237,0.599c-0.326,0-0.502-0.146-0.532-0.436
		c-0.026-0.289,0.017-0.634,0.124-1.032c0.2-0.614,0.368-1.183,0.502-1.697c0.136-0.517,0.25-0.965,0.341-1.346l0.299-1.196
		c0.161-0.578,0.229-1.111,0.204-1.601c-0.028-0.49-0.119-0.912-0.272-1.264c-0.156-0.354-0.365-0.628-0.639-0.828
		c-0.27-0.199-0.579-0.299-0.922-0.299c-0.418,0-0.825,0.086-1.224,0.259c-0.397,0.171-0.775,0.394-1.128,0.665
		c-0.352,0.272-0.678,0.576-0.979,0.911c-0.298,0.335-0.566,0.665-0.799,0.991c0.107-0.307,0.197-0.606,0.272-0.896
		c0.071-0.254,0.142-0.495,0.214-0.72c0.075-0.227,0.139-0.405,0.193-0.531c-0.108-0.09-0.231-0.158-0.367-0.204
		c-0.136-0.045-0.27-0.075-0.396-0.094c-0.145-0.019-0.288-0.028-0.436-0.028c-0.161,0.019-0.315,0.056-0.461,0.109
		c-0.147,0.038-0.283,0.088-0.421,0.15c-0.136,0.064-0.268,0.149-0.394,0.258c-0.158,0.598-0.294,1.147-0.418,1.663
		c-0.116,0.094-0.232,0.19-0.369,0.292c-0.363,0.272-0.758,0.54-1.181,0.801c-0.426,0.263-0.866,0.513-1.318,0.748
		c-0.454,0.235-0.888,0.434-1.306,0.598c0.019-0.144,0.039-0.321,0.055-0.53c0.02-0.208,0.027-0.385,0.027-0.53
		c0-0.706-0.119-1.309-0.352-1.806c-0.238-0.499-0.521-0.91-0.856-1.236c-0.335-0.326-0.678-0.571-1.034-0.734
		c-0.353-0.162-0.645-0.252-0.882-0.27c-0.055-0.02-0.104-0.037-0.148-0.055c-0.046-0.018-0.097-0.027-0.15-0.027
		c-0.327,0-0.662,0.04-1.006,0.122c-0.344,0.081-0.667,0.2-0.965,0.354c-0.299,0.154-0.56,0.348-0.787,0.584
		c-0.228,0.235-0.394,0.508-0.502,0.814c-0.307,0.363-0.578,0.761-0.802,1.195c-0.227,0.435-0.412,0.871-0.557,1.305
		c-0.146,0.436-0.258,0.86-0.34,1.278c-0.053,0.273-0.083,0.525-0.103,0.768c-0.355,0.466-0.726,0.932-1.133,1.404
		c-0.473,0.544-0.973,1.023-1.509,1.439c-0.534,0.417-1.045,0.625-1.534,0.625c-0.272,0-0.451-0.053-0.53-0.162
		c-0.081-0.107-0.133-0.281-0.15-0.516c0-0.308,0.085-0.647,0.257-1.02c0.171-0.371,0.271-0.801,0.286-1.29
		c0.017-0.362-0.065-0.666-0.257-0.91c-0.191-0.246-0.413-0.439-0.665-0.585c0.216-0.145,0.479-0.326,0.787-0.542
		c0.308-0.219,0.597-0.476,0.87-0.774c0.272-0.3,0.501-0.626,0.691-0.979c0.19-0.353,0.295-0.737,0.313-1.154
		c0.017-0.525-0.098-0.983-0.353-1.371c-0.254-0.39-0.671-0.584-1.249-0.584c-0.472,0-1.07,0.19-1.793,0.569
		c-0.689,0.381-1.305,0.866-1.85,1.455c-0.542,0.588-0.994,1.146-1.357,1.671c0.182-0.688,0.385-1.362,0.614-2.023
		c0.224-0.662,0.46-1.346,0.706-2.051c0.244-0.707,0.497-1.462,0.759-2.27c0.263-0.806,0.521-1.697,0.775-2.676
		C8.204,5.103,8.336,4.51,8.4,4.083c0.064-0.425,0.04-0.728-0.068-0.909C8.241,3.01,8.093,2.92,7.883,2.901
		C7.674,2.885,7.417,2.892,7.11,2.929C6.838,2.965,6.601,3.01,6.402,3.064c-0.201,0.037-0.378,0.09-0.543,0.164
		C5.696,3.3,5.568,3.382,5.477,3.472c0.057,0.181,0.08,0.448,0.069,0.802c-0.009,0.353-0.03,0.711-0.069,1.073
		C5.425,5.781,5.37,6.235,5.315,6.705C5.242,7.14,5.128,7.733,4.977,8.485s-0.339,1.593-0.556,2.526
		c-0.218,0.933-0.449,1.912-0.694,2.934c-0.245,1.025-0.484,2.006-0.719,2.947c-0.236,0.942-0.461,1.808-0.68,2.596
		c-0.217,0.788-0.398,1.418-0.543,1.888c-0.108,0.325-0.157,0.58-0.15,0.761c0.011,0.18,0.056,0.312,0.135,0.394
		c0.083,0.082,0.188,0.126,0.314,0.137c0.125,0.008,0.26,0.014,0.407,0.014c0.107,0,0.216-0.011,0.326-0.027
		c0.09-0.02,0.195-0.041,0.313-0.069c0.117-0.026,0.232-0.067,0.337-0.121c0.145-0.707,0.288-1.391,0.423-2.05
		c0.137-0.662,0.257-1.256,0.365-1.782c0.128-0.597,0.256-1.167,0.382-1.711c0.289-0.326,0.655-0.737,1.099-1.235
		c0.444-0.498,0.848-0.928,1.208-1.292c0.184-0.162,0.387-0.334,0.614-0.516c0.223-0.181,0.456-0.33,0.693-0.447
		c0.234-0.118,0.461-0.173,0.678-0.165c0.218,0.01,0.399,0.132,0.543,0.368c0.236,0.344,0.213,0.729-0.066,1.154
		c-0.282,0.425-0.749,0.9-1.4,1.425c-0.201-0.035-0.385-0.062-0.556-0.081c-0.173-0.018-0.286-0.027-0.34-0.027
		c-0.11,0-0.247,0.019-0.407,0.055c-0.164,0.036-0.325,0.1-0.476,0.19c-0.154,0.092-0.29,0.217-0.407,0.381
		c-0.12,0.162-0.177,0.371-0.177,0.625c0,0.308,0.091,0.564,0.271,0.774c0.182,0.209,0.381,0.312,0.597,0.312
		c0.309,0,0.565-0.068,0.775-0.204c0.209-0.136,0.394-0.293,0.559-0.476c0.09,0.146,0.166,0.313,0.229,0.502
		c0.066,0.19,0.06,0.405-0.013,0.64c-0.053,0.201-0.112,0.375-0.176,0.53c-0.063,0.154-0.122,0.303-0.177,0.447
		c-0.055,0.146-0.103,0.309-0.148,0.489s-0.067,0.39-0.067,0.627c-0.019,0.524,0.113,1,0.392,1.423c0.28,0.428,0.736,0.64,1.37,0.64
		c0.636,0,1.268-0.197,1.902-0.597c0.634-0.398,1.25-0.902,1.848-1.509c0.476-0.482,0.927-1.019,1.362-1.583
		c0.005,0.062,0.007,0.122,0.012,0.185c0.044,0.562,0.172,1.077,0.38,1.549c0.206,0.471,0.525,0.864,0.949,1.182
		c0.426,0.315,1.011,0.475,1.754,0.475c0.633,0,1.216-0.122,1.751-0.367c0.533-0.243,1.013-0.583,1.44-1.018
		c0.426-0.435,0.793-0.952,1.101-1.549c0.305-0.597,0.55-1.24,0.734-1.93c0.543-0.181,1.114-0.451,1.711-0.814
		c0.597-0.363,1.149-0.733,1.658-1.113c0.254-0.191,0.492-0.376,0.712-0.554c-0.02,0.093-0.042,0.195-0.061,0.283
		c-0.108,0.506-0.21,0.968-0.299,1.384c-0.126,0.524-0.264,1.076-0.406,1.657c-0.147,0.58-0.287,1.127-0.423,1.645
		c-0.135,0.516-0.252,0.963-0.354,1.345c-0.099,0.38-0.158,0.623-0.176,0.733c-0.033,0.162,0.059,0.244,0.287,0.244
		c0.225,0,0.491-0.054,0.801-0.163c0.306-0.11,0.597-0.25,0.871-0.421c0.271-0.172,0.433-0.35,0.486-0.53
		c0.055-0.253,0.119-0.521,0.189-0.801c0.072-0.28,0.15-0.608,0.232-0.979c0.08-0.37,0.178-0.788,0.287-1.25
		c0.106-0.462,0.243-1,0.408-1.615c0.306-0.452,0.618-0.893,0.935-1.318c0.318-0.424,0.634-0.801,0.951-1.127
		c0.317-0.327,0.63-0.585,0.938-0.774c0.308-0.191,0.608-0.286,0.897-0.286c0.234,0,0.388,0.132,0.46,0.395
		c0.074,0.263,0.091,0.597,0.054,1.005c-0.037,0.407-0.113,0.859-0.23,1.357c-0.119,0.499-0.244,0.997-0.381,1.492
		c-0.135,0.501-0.267,0.963-0.394,1.388c-0.127,0.426-0.218,0.764-0.272,1.019c-0.089,0.38-0.107,0.739-0.055,1.074
		c0.055,0.334,0.174,0.629,0.354,0.881c0.181,0.254,0.42,0.459,0.717,0.613c0.302,0.152,0.658,0.229,1.077,0.229
		c0.397,0,0.818-0.122,1.261-0.366c0.445-0.244,0.894-0.562,1.347-0.952c0.452-0.389,0.887-0.822,1.305-1.302
		c0.417-0.48,0.807-0.956,1.168-1.429c0.276-0.357,0.513-0.694,0.73-1.021c-0.107,0.738-0.171,1.252-0.188,1.539
		c-0.035,0.342-0.009,0.718,0.082,1.127c0.091,0.407,0.249,0.783,0.475,1.127c0.225,0.344,0.54,0.635,0.938,0.869
		c0.397,0.236,0.896,0.353,1.495,0.353c0.415,0,0.933-0.227,1.548-0.678c0.615-0.452,1.251-1.028,1.901-1.727
		c0.349-0.371,0.685-0.759,1.015-1.159c0.039,0.313,0.1,0.608,0.194,0.874c0.227,0.635,0.529,1.151,0.91,1.549
		c0.383,0.398,0.802,0.692,1.263,0.883c0.465,0.19,0.892,0.285,1.293,0.285c0.76,0,1.542-0.182,2.349-0.542
		c0.806-0.363,1.593-0.838,2.363-1.427c0.77-0.589,1.499-1.26,2.186-2.011c0.446-0.487,0.852-0.987,1.236-1.493
		c0.093-0.115,0.207-0.259,0.367-0.464c0.236-0.299,0.485-0.624,0.749-0.977c0.263-0.353,0.505-0.692,0.732-1.02
		c0.227-0.326,0.385-0.56,0.476-0.706c0.035,0.073,0.088,0.204,0.148,0.395c0.065,0.19,0.131,0.384,0.206,0.585
		c0.072,0.235,0.161,0.489,0.271,0.76c0.127,0.362,0.279,0.761,0.462,1.195c0.182,0.436,0.348,0.864,0.502,1.289
		c0.154,0.427,0.265,0.824,0.341,1.196c0.071,0.372,0.071,0.657,0,0.855c-0.076,0.2-0.187,0.362-0.341,0.491
		c-0.154,0.126-0.315,0.225-0.486,0.297c-0.175,0.071-0.348,0.109-0.518,0.109c-0.173,0-0.313-0.038-0.421-0.109
		c-0.092-0.072-0.189-0.208-0.3-0.407c-0.092-0.181-0.207-0.431-0.354-0.747c-0.143-0.317-0.308-0.756-0.488-1.317
		c-0.217,0.073-0.407,0.135-0.57,0.189c-0.165,0.054-0.289,0.109-0.381,0.163c-0.108,0.073-0.199,0.136-0.271,0.191
		c-0.18,0.162-0.314,0.308-0.408,0.435c-0.09,0.126-0.189,0.298-0.297,0.516c-0.09,0.162-0.08,0.398,0.039,0.707
		c0.118,0.308,0.299,0.62,0.543,0.938c0.245,0.315,0.544,0.592,0.897,0.826c0.353,0.236,0.72,0.354,1.099,0.354
		c0.545,0,1.065-0.145,1.563-0.434c0.499-0.289,0.94-0.641,1.331-1.046c0.39-0.408,0.715-0.829,0.977-1.263
		c0.264-0.436,0.423-0.807,0.478-1.114c0.036-0.2,0.012-0.444-0.082-0.734C64.505,18.262,64.387,17.947,64.242,17.612z
		 M19.783,19.516c-0.173,0.316-0.366,0.597-0.584,0.842c-0.217,0.244-0.461,0.443-0.733,0.597c-0.271,0.154-0.571,0.232-0.897,0.232
		c-0.29,0-0.525-0.078-0.706-0.232c-0.179-0.153-0.327-0.353-0.435-0.597c-0.108-0.245-0.182-0.525-0.218-0.842
		c-0.035-0.319-0.054-0.64-0.054-0.966c0-0.325,0.038-0.668,0.109-1.031s0.163-0.734,0.271-1.115
		c0.273,0.636,0.656,1.154,1.154,1.562c0.5,0.407,1.093,0.612,1.78,0.612c0.145,0,0.274-0.005,0.394-0.015
		c0.118-0.008,0.239-0.022,0.366-0.04C20.104,18.867,19.954,19.196,19.783,19.516z M20.909,15.752c0,0.145-0.021,0.312-0.066,0.503
		c-0.046,0.19-0.095,0.403-0.148,0.638c-0.093,0.019-0.184,0.033-0.271,0.04c-0.093,0.01-0.184,0.016-0.273,0.016
		c-0.562,0-1-0.087-1.319-0.26c-0.316-0.172-0.55-0.384-0.693-0.637c-0.144-0.253-0.235-0.54-0.272-0.856
		c-0.035-0.317-0.053-0.62-0.053-0.909c0-0.182,0.025-0.354,0.081-0.518c0.271-0.344,0.567-0.611,0.883-0.801
		c0.317-0.19,0.647-0.286,0.993-0.286c0.216,0,0.403,0.095,0.557,0.286c0.152,0.189,0.28,0.434,0.38,0.733
		c0.101,0.299,0.167,0.629,0.202,0.991C20.946,15.055,20.946,15.408,20.909,15.752z M50.332,13.646
		c0.29-0.407,0.583-0.719,0.882-0.937c0.301-0.217,0.561-0.326,0.777-0.326c0.196,0,0.352,0.077,0.459,0.231
		c0.11,0.153,0.146,0.403,0.11,0.747c-0.035,0.325-0.21,0.715-0.517,1.168c-0.31,0.453-0.851,0.978-1.631,1.575
		c-0.252,0.2-0.506,0.386-0.76,0.557c-0.255,0.174-0.487,0.34-0.707,0.504c0.128-0.762,0.317-1.435,0.572-2.024
		C49.771,14.552,50.043,14.054,50.332,13.646z"/>
	<path fill="#000" d="M78.289,7.493c-0.128-0.036-0.317-0.104-0.571-0.204c-0.251-0.099-0.591-0.199-1.003-0.3
		c-0.419-0.1-0.922-0.19-1.511-0.271c-0.589-0.082-1.262-0.122-2.024-0.122c0.184-0.924,0.281-1.686,0.3-2.283
		c0.018-0.597-0.019-0.968-0.109-1.114c-0.09-0.109-0.233-0.176-0.433-0.204c-0.2-0.026-0.409-0.026-0.625,0
		c-0.218,0.028-0.421,0.073-0.612,0.136c-0.19,0.064-0.312,0.141-0.367,0.23c-0.181,0.255-0.386,0.703-0.609,1.345
		c-0.228,0.643-0.46,1.399-0.696,2.269c-0.305,0.054-0.616,0.1-0.936,0.136c-0.317,0.036-0.646,0.063-0.99,0.082
		c-0.474,0.017-0.908,0.012-1.306-0.014c-0.398-0.027-0.769-0.06-1.111-0.096c-0.111,0-0.233,0.05-0.367,0.149
		c-0.138,0.099-0.252,0.217-0.342,0.353c-0.09,0.137-0.144,0.272-0.164,0.407c-0.017,0.137,0.048,0.241,0.19,0.312
		c0.258,0.127,0.641,0.259,1.155,0.396c0.516,0.135,1.063,0.203,1.644,0.203c0.254,0,0.534-0.019,0.844-0.054
		c0.306-0.037,0.615-0.072,0.924-0.109c-0.254,1.051-0.494,2.143-0.722,3.274c-0.227,1.132-0.43,2.191-0.609,3.179
		c-0.183,0.987-0.326,1.857-0.437,2.608c-0.106,0.752-0.173,1.273-0.188,1.562c-0.037,0.342-0.009,0.718,0.082,1.127
		c0.089,0.407,0.246,0.783,0.475,1.127c0.226,0.344,0.54,0.635,0.938,0.869c0.396,0.236,0.896,0.353,1.494,0.353
		c0.416,0,0.933-0.227,1.548-0.678c0.617-0.452,1.25-1.028,1.901-1.727c0.652-0.696,1.273-1.442,1.86-2.241
		c0.588-0.797,1.066-1.538,1.43-2.227c0.105-0.218,0.155-0.39,0.149-0.517c-0.012-0.126-0.052-0.218-0.124-0.271
		c-0.074-0.054-0.169-0.068-0.285-0.041c-0.118,0.027-0.216,0.095-0.285,0.203c-0.109,0.146-0.299,0.395-0.57,0.747
		c-0.273,0.354-0.589,0.749-0.952,1.181c-0.361,0.438-0.754,0.881-1.183,1.333c-0.427,0.453-0.848,0.87-1.263,1.251
		c-0.416,0.38-0.819,0.684-1.211,0.908c-0.386,0.228-0.719,0.322-0.989,0.286c-0.346-0.019-0.634-0.127-0.87-0.325
		c-0.198-0.182-0.366-0.477-0.501-0.884c-0.137-0.407-0.149-1.001-0.042-1.781c0.473-1.085,0.896-2.108,1.277-3.068
		c0.382-0.96,0.707-1.812,0.979-2.553c0.309-0.851,0.579-1.639,0.815-2.364c0.11-0.309,0.194-0.604,0.259-0.884
		c0.061-0.281,0.13-0.566,0.201-0.855c0.146,0,0.285-0.004,0.424-0.014c0.133-0.009,0.256-0.015,0.366-0.015
		c0.577,0,1.085,0.019,1.519,0.055c0.437,0.037,0.812,0.073,1.129,0.108c0.315,0.038,0.589,0.083,0.814,0.137
		c0.229,0.055,0.431,0.091,0.611,0.108c0.182,0.037,0.344,0,0.49-0.108c0.143-0.108,0.248-0.24,0.312-0.395
		c0.064-0.152,0.091-0.304,0.081-0.447C78.481,7.62,78.416,7.529,78.289,7.493z"/>
</g>
</svg>
