<svg enable-background="new 0 0 80 26" height="26" viewBox="0 0 80 26" width="80" xmlns="http://www.w3.org/2000/svg">
	<style>
    path { fill: currentColor; }
    @media (prefers-color-scheme: dark) {
        path { fill: white; }
    }
  </style>
	<path d="m64.242 17.612c-.145-.334-.309-.673-.487-1.019-.182-.343-.354-.678-.518-1.005-.127-.254-.245-.534-.354-.843-.092-.253-.185-.551-.284-.897-.101-.343-.178-.722-.232-1.14.272-.326.48-.593.625-.8.146-.209.252-.386.327-.531.073-.145.126-.263.162-.354.035-.181-.017-.357-.162-.529-.146-.172-.337-.331-.572-.477-.29-.144-.617-.149-.977-.013-.362.136-.717.34-1.061.611-.343.273-.644.575-.895.91-.255.337-.418.629-.49.884-.091.309-.068.58.068.814.136.236.185.426.148.571-.017.053-.118.211-.298.476-.183.262-.379.561-.602.896-.215.336-.431.661-.649.977-.177.261-.309.447-.413.593-.205.229-.419.466-.659.727-.553.596-1.15 1.173-1.793 1.725-.642.553-1.302 1.023-1.97 1.413-.671.39-1.314.585-1.929.585-.292 0-.576-.042-.856-.124-.28-.08-.529-.218-.748-.407-.215-.189-.397-.438-.543-.746-.145-.308-.226-.689-.244-1.141.271-.199.589-.422.95-.667.363-.243.743-.501 1.143-.774.363-.253.746-.534 1.154-.843.407-.307.793-.651 1.155-1.031.361-.38.674-.805.937-1.277.264-.47.423-.987.475-1.548.037-.507-.098-.933-.407-1.276-.307-.345-.806-.516-1.494-.516-.724 0-1.445.226-2.158.678-.717.453-1.359 1.023-1.929 1.711s-1.054 1.444-1.44 2.269c-.323.682-.529 1.332-.635 1.957-.321.38-.655.762-1.021 1.153-.429.453-.848.87-1.265 1.251-.417.38-.819.684-1.211.908-.387.228-.72.322-.991.286-.344-.019-.633-.127-.868-.325-.2-.182-.367-.477-.503-.884-.134-.407-.149-1.001-.042-1.781.471-1.085.896-2.108 1.277-3.068.38-.96.706-1.812.979-2.553.311-.851.58-1.639.814-2.364.108-.309.194-.604.261-.884.06-.281.128-.566.201-.855.144 0 .287-.004.42-.014.139-.009.26-.015.367-.015.582 0 1.089.019 1.522.055.435.037.812.073 1.124.108.32.038.591.083.819.137.225.055.429.091.611.108.18.037.343 0 .487-.108.146-.108.25-.24.313-.395.062-.152.089-.304.081-.447-.009-.146-.078-.236-.204-.272s-.318-.104-.57-.204c-.253-.099-.588-.199-1.005-.3-.417-.1-.92-.19-1.507-.271-.59-.082-1.262-.122-2.023-.122.18-.924.28-1.686.298-2.283s-.018-.968-.108-1.114c-.09-.109-.234-.176-.434-.204-.201-.026-.408-.026-.627 0-.218.028-.421.073-.611.136-.189.064-.312.141-.367.23-.18.255-.385.703-.612 1.345-.224.643-.454 1.399-.691 2.269-.31.054-.619.1-.936.136-.319.036-.65.063-.993.082-.472.017-.904.012-1.303-.014-.398-.027-.769-.06-1.114-.096-.11 0-.231.05-.366.149-.139.099-.25.217-.342.353-.091.137-.143.272-.164.407-.016.137.049.241.191.312.255.127.639.259 1.155.396.517.135 1.064.203 1.645.203.253 0 .534-.019.842-.054.309-.037.614-.072.924-.109-.253 1.051-.495 2.143-.72 3.274-.228 1.132-.432 2.191-.611 3.179-.025.14-.045.259-.069.393-.091.083-.186.186-.285.328-.236.361-.579.838-1.033 1.425-.45.59-.933 1.164-1.438 1.725-.508.563-1.01 1.042-1.507 1.44-.497.4-.909.599-1.237.599-.326 0-.502-.146-.532-.436-.026-.289.017-.634.124-1.032.2-.614.368-1.183.502-1.697.136-.517.25-.965.341-1.346l.299-1.196c.161-.578.229-1.111.204-1.601-.028-.49-.119-.912-.272-1.264-.156-.354-.365-.628-.639-.828-.27-.199-.579-.299-.922-.299-.418 0-.825.086-1.224.259-.397.171-.775.394-1.128.665-.352.272-.678.576-.979.911-.298.335-.566.665-.799.991.107-.307.197-.606.272-.896.071-.254.142-.495.214-.72.075-.227.139-.405.193-.531-.108-.09-.231-.158-.367-.204-.136-.045-.27-.075-.396-.094-.145-.019-.288-.028-.436-.028-.161.019-.315.056-.461.109-.147.038-.283.088-.421.15-.136.064-.268.149-.394.258-.158.598-.294 1.147-.418 1.663-.116.094-.232.19-.369.292-.363.272-.758.54-1.181.801-.426.263-.866.513-1.318.748-.454.235-.888.434-1.306.598.019-.144.039-.321.055-.53.02-.208.027-.385.027-.53 0-.706-.119-1.309-.352-1.806-.238-.499-.521-.91-.856-1.236s-.678-.571-1.034-.734c-.353-.162-.645-.252-.882-.27-.055-.02-.104-.037-.148-.055-.046-.018-.097-.027-.15-.027-.327 0-.662.04-1.006.122-.344.081-.667.2-.965.354-.299.154-.56.348-.787.584-.228.235-.394.508-.502.814-.307.363-.578.761-.802 1.195-.227.435-.412.871-.557 1.305-.146.436-.258.86-.34 1.278-.053.273-.083.525-.103.768-.355.466-.726.932-1.133 1.404-.473.544-.973 1.023-1.509 1.439-.534.417-1.045.625-1.534.625-.272 0-.451-.053-.53-.162-.081-.107-.133-.281-.15-.516 0-.308.085-.647.257-1.02.171-.371.271-.801.286-1.29.017-.362-.065-.666-.257-.91-.191-.246-.413-.439-.665-.585.216-.145.479-.326.787-.542.308-.219.597-.476.87-.774.272-.3.501-.626.691-.979s.295-.737.313-1.154c.017-.525-.098-.983-.353-1.371-.254-.39-.671-.584-1.249-.584-.472 0-1.07.19-1.793.569-.689.381-1.305.866-1.85 1.455-.542.588-.994 1.146-1.357 1.671.182-.688.385-1.362.614-2.023.224-.662.46-1.346.706-2.051.244-.707.497-1.462.759-2.27.263-.806.521-1.697.775-2.676.201-.76.333-1.353.397-1.78.064-.425.04-.728-.068-.909-.091-.164-.239-.254-.449-.273-.209-.016-.466-.009-.773.028-.272.036-.509.081-.708.135-.201.037-.378.09-.543.164-.163.072-.291.154-.382.244.057.181.08.448.069.802-.009.353-.03.711-.069 1.073-.052.434-.107.888-.162 1.358-.073.435-.187 1.028-.338 1.78s-.339 1.593-.556 2.526c-.218.933-.449 1.912-.694 2.934-.245 1.025-.484 2.006-.719 2.947-.236.942-.461 1.808-.68 2.596-.217.788-.398 1.418-.543 1.888-.108.325-.157.58-.15.761.011.18.056.312.135.394.083.082.188.126.314.137.125.008.26.014.407.014.107 0 .216-.011.326-.027.09-.02.195-.041.313-.069.117-.026.232-.067.337-.121.145-.707.288-1.391.423-2.05.137-.662.257-1.256.365-1.782.128-.597.256-1.167.382-1.711.289-.326.655-.737 1.099-1.235s.848-.928 1.208-1.292c.184-.162.387-.334.614-.516.223-.181.456-.33.693-.447.234-.118.461-.173.678-.165.218.01.399.132.543.368.236.344.213.729-.066 1.154-.282.425-.749.9-1.4 1.425-.201-.035-.385-.062-.556-.081-.173-.018-.286-.027-.34-.027-.11 0-.247.019-.407.055-.164.036-.325.1-.476.19-.154.092-.29.217-.407.381-.12.162-.177.371-.177.625 0 .308.091.564.271.774.182.209.381.312.597.312.309 0 .565-.068.775-.204.209-.136.394-.293.559-.476.09.146.166.313.229.502.066.19.06.405-.013.64-.053.201-.112.375-.176.53-.063.154-.122.303-.177.447-.055.146-.103.309-.148.489s-.067.39-.067.627c-.019.524.113 1 .392 1.423.28.428.736.64 1.37.64.636 0 1.268-.197 1.902-.597.634-.398 1.25-.902 1.848-1.509.476-.482.927-1.019 1.362-1.583.005.062.007.122.012.185.044.562.172 1.077.38 1.549.206.471.525.864.949 1.182.426.315 1.011.475 1.754.475.633 0 1.216-.122 1.751-.367.533-.243 1.013-.583 1.44-1.018.426-.435.793-.952 1.101-1.549.305-.597.55-1.24.734-1.93.543-.181 1.114-.451 1.711-.814s1.149-.733 1.658-1.113c.254-.191.492-.376.712-.554-.02.093-.042.195-.061.283-.108.506-.21.968-.299 1.384-.126.524-.264 1.076-.406 1.657-.147.58-.287 1.127-.423 1.645-.135.516-.252.963-.354 1.345-.099.38-.158.623-.176.733-.033.162.059.244.287.244.225 0 .491-.054.801-.163.306-.11.597-.25.871-.421.271-.172.433-.35.486-.53.055-.253.119-.521.189-.801.072-.28.15-.608.232-.979.08-.37.178-.788.287-1.25.106-.462.243-1 .408-1.615.306-.452.618-.893.935-1.318.318-.424.634-.801.951-1.127.317-.327.63-.585.938-.774.308-.191.608-.286.897-.286.234 0 .388.132.46.395.074.263.091.597.054 1.005-.037.407-.113.859-.23 1.357-.119.499-.244.997-.381 1.492-.135.501-.267.963-.394 1.388-.127.426-.218.764-.272 1.019-.089.38-.107.739-.055 1.074.055.334.174.629.354.881.181.254.42.459.717.613.302.152.658.229 1.077.229.397 0 .818-.122 1.261-.366.445-.244.894-.562 1.347-.952.452-.389.887-.822 1.305-1.302.417-.48.807-.956 1.168-1.429.276-.357.513-.694.73-1.021-.107.738-.171 1.252-.188 1.539-.035.342-.009.718.082 1.127.091.407.249.783.475 1.127.225.344.54.635.938.869.397.236.896.353 1.495.353.415 0 .933-.227 1.548-.678.615-.452 1.251-1.028 1.901-1.727.349-.371.685-.759 1.015-1.159.039.313.1.608.194.874.227.635.529 1.151.91 1.549.383.398.802.692 1.263.883.465.19.892.285 1.293.285.76 0 1.542-.182 2.349-.542.806-.363 1.593-.838 2.363-1.427s1.499-1.26 2.186-2.011c.446-.487.852-.987 1.236-1.493.093-.115.207-.259.367-.464.236-.299.485-.624.749-.977.263-.353.505-.692.732-1.02.227-.326.385-.56.476-.706.035.073.088.204.148.395.065.19.131.384.206.585.072.235.161.489.271.76.127.362.279.761.462 1.195.182.436.348.864.502 1.289.154.427.265.824.341 1.196.071.372.071.657 0 .855-.076.2-.187.362-.341.491-.154.126-.315.225-.486.297-.175.071-.348.109-.518.109-.173 0-.313-.038-.421-.109-.092-.072-.189-.208-.3-.407-.092-.181-.207-.431-.354-.747-.143-.317-.308-.756-.488-1.317-.217.073-.407.135-.57.189-.165.054-.289.109-.381.163-.108.073-.199.136-.271.191-.18.162-.314.308-.408.435-.09.126-.189.298-.297.516-.09.162-.08.398.039.707.118.308.299.62.543.938.245.315.544.592.897.826.353.236.72.354 1.099.354.545 0 1.065-.145 1.563-.434.499-.289.94-.641 1.331-1.046.39-.408.715-.829.977-1.263.264-.436.423-.807.478-1.114.036-.2.012-.444-.082-.734-.092-.288-.21-.603-.355-.938zm-44.459 1.904c-.173.316-.366.597-.584.842-.217.244-.461.443-.733.597-.271.154-.571.232-.897.232-.29 0-.525-.078-.706-.232-.179-.153-.327-.353-.435-.597-.108-.245-.182-.525-.218-.842-.035-.319-.054-.64-.054-.966 0-.325.038-.668.109-1.031s.163-.734.271-1.115c.273.636.656 1.154 1.154 1.562.5.407 1.093.612 1.78.612.145 0 .274-.005.394-.015.118-.008.239-.022.366-.04-.126.344-.276.673-.447.993zm1.126-3.764c0 .145-.021.312-.066.503-.046.19-.095.403-.148.638-.093.019-.184.033-.271.04-.093.01-.184.016-.273.016-.562 0-1-.087-1.319-.26-.316-.172-.55-.384-.693-.637-.144-.253-.235-.54-.272-.856-.035-.317-.053-.62-.053-.909 0-.182.025-.354.081-.518.271-.344.567-.611.883-.801.317-.19.647-.286.993-.286.216 0 .403.095.557.286.152.189.28.434.38.733.101.299.167.629.202.991.036.363.036.716-.001 1.06zm29.423-2.106c.29-.407.583-.719.882-.937.301-.217.561-.326.777-.326.196 0 .352.077.459.231.11.153.146.403.11.747-.035.325-.21.715-.517 1.168-.31.453-.851.978-1.631 1.575-.252.2-.506.386-.76.557-.255.174-.487.34-.707.504.128-.762.317-1.435.572-2.024.254-.589.526-1.087.815-1.495z"/><path d="m78.289 7.493c-.128-.036-.317-.104-.571-.204-.251-.099-.591-.199-1.003-.3-.419-.1-.922-.19-1.511-.271-.589-.082-1.262-.122-2.024-.122.184-.924.281-1.686.3-2.283.018-.597-.019-.968-.109-1.114-.09-.109-.233-.176-.433-.204-.2-.026-.409-.026-.625 0-.218.028-.421.073-.612.136-.19.064-.312.141-.367.23-.181.255-.386.703-.609 1.345-.228.643-.46 1.399-.696 2.269-.305.054-.616.1-.936.136-.317.036-.646.063-.99.082-.474.017-.908.012-1.306-.014-.398-.027-.769-.06-1.111-.096-.111 0-.233.05-.367.149-.138.099-.252.217-.342.353-.09.137-.144.272-.164.407-.017.137.048.241.19.312.258.127.641.259 1.155.396.516.135 1.063.203 1.644.203.254 0 .534-.019.844-.054.306-.037.615-.072.924-.109-.254 1.051-.494 2.143-.722 3.274-.227 1.132-.43 2.191-.609 3.179-.183.987-.326 1.857-.437 2.608-.106.752-.173 1.273-.188 1.562-.037.342-.009.718.082 1.127.089.407.246.783.475 1.127.226.344.54.635.938.869.396.236.896.353 1.494.353.416 0 .933-.227 1.548-.678.617-.452 1.25-1.028 1.901-1.727.652-.696 1.273-1.442 1.86-2.241.588-.797 1.066-1.538 1.43-2.227.105-.218.155-.39.149-.517-.012-.126-.052-.218-.124-.271-.074-.054-.169-.068-.285-.041-.118.027-.216.095-.285.203-.109.146-.299.395-.57.747-.273.354-.589.749-.952 1.181-.361.438-.754.881-1.183 1.333-.427.453-.848.87-1.263 1.251-.416.38-.819.684-1.211.908-.386.228-.719.322-.989.286-.346-.019-.634-.127-.87-.325-.198-.182-.366-.477-.501-.884-.137-.407-.149-1.001-.042-1.781.473-1.085.896-2.108 1.277-3.068.382-.96.707-1.812.979-2.553.309-.851.579-1.639.815-2.364.11-.309.194-.604.259-.884.061-.281.13-.566.201-.855.146 0 .285-.004.424-.014.133-.009.256-.015.366-.015.577 0 1.085.019 1.519.055.437.037.812.073 1.129.108.315.038.589.083.814.137.229.055.431.091.611.108.182.037.344 0 .49-.108.143-.108.248-.24.312-.395.064-.152.091-.304.081-.447-.012-.141-.077-.232-.204-.268z"/>
</svg>
