<svg fill="none" height="25" viewBox="0 0 162 25" width="162" xmlns="http://www.w3.org/2000/svg"><g fill="#000"><path d="m24.3361 12.6311c0 6.7114-5.3947 12.1524-12.0496 12.1524s-12.049195-5.4393-12.049195-12.1524c0-6.71316 5.394705-12.152096 12.049195-12.152096 6.6545 0 12.0496 5.440576 12.0496 12.152096z"/><path d="m37.5547 12.6312c0 6.3181-2.6975 11.4394-6.0248 11.4394-3.3272 0-6.0248-5.123-6.0248-11.4394 0-6.31636 2.6976-11.43931 6.0248-11.43931 3.3273 0 6.0248 5.12295 6.0248 11.43931z"/><path d="m42.9612 12.6313c0 5.6606-.9488 10.2491-2.119 10.2491s-2.1191-4.5901-2.1191-10.2491c0-5.65906.9489-10.24922 2.1195-10.24922s2.1186 4.58893 2.1186 10.24922z"/><path d="m76.216 1.5327.0336-.00738v-.26024h-6.8525l-6.3628 14.97952-6.3628-14.97952h-7.3844v.26024l.0332.00738c1.2507.28279 1.8858.70451 1.8858 2.22541v17.80529c0 1.5209-.6375 1.9426-1.8883 2.2254l-.0331.0074v.2611h5.0101v-.2603l-.0332-.0074c-1.2508-.2827-1.8858-.7045-1.8858-2.2254v-16.77331l8.1737 19.26641h.4636l8.4118-19.8037v17.7504c-.1072 1.2012-.7365 1.5721-1.869 1.8283l-.0336.0078v.2582h8.7273v-.2582l-.0336-.0078c-1.1337-.2562-1.7781-.6271-1.8853-1.8283l-.0058-18.24589h.0058c0-1.5209.635-1.94262 1.8853-2.22541zm3.9864 11.7951c.1428-3.1992 1.2897-5.50822 3.2144-5.54797.5936.00983 1.0916.20491 1.4786.58032.8224.79959 1.2091 2.47045 1.1494 4.96765zm-.0863.9016h10.2289v-.043c-.0291-2.4463-.7365-4.3492-2.1006-5.65576-1.1792-1.12909-2.9251-1.7504-4.7589-1.7504h-.0409c-.9517 0-2.119.23114-2.9496.65-.9456.43852-1.7794 1.09426-2.4734 1.95491-1.117 1.38645-1.7937 3.26025-1.9582 5.36595-.0053.0631-.0098.1263-.0143.1894s-.0074.1196-.0102.1799c-.0058.1127-.0103.2258-.0127.3393-.0041.182-.0053.3652-.0021.5496.1109 4.7693 2.6829 8.5808 7.2511 8.5808 4.0097 0 6.3447-2.9361 6.927-6.8771l-.2942-.1037c-1.0229 2.1181-2.86 3.4017-4.9508 3.2451-2.8542-.2139-5.0408-3.1127-4.8423-6.6242zm21.7939 6.4631c-.335.7971-1.035 1.2357-1.9736 1.2357-.9382 0-1.7958-.6451-2.405-1.8172-.6547-1.2582-.9992-3.0369-.9992-5.1439 0-4.3852 1.3617-7.2217 3.4688-7.2217.883 0 1.578.43852 1.909 1.20369zm6.786 3.1262c-1.251-.2963-1.886-.7377-1.886-2.336v-21.266391l-7.5995 2.242621v.27459l.0467-.00369c1.0478-.08484 1.7598.06025 2.1718.44221.324.29918.481.7582.481 1.4041v2.91557c-.749-.4791-1.64-.71229-2.7216-.71229-2.193 0-4.1975.925-5.643 2.60491-1.5069 1.75077-2.3036 4.14347-2.3036 6.91847-.0004 4.9561 2.4353 8.2873 6.0604 8.2873 2.1207 0 3.8268-1.164 4.6078-3.1271v2.6353h6.819v-.273zm6.517-20.71018c0-1.54754-1.165-2.714753-2.71-2.714753-1.538 0-2.742 1.192623-2.742 2.714753s1.205 2.71475 2.742 2.71475c1.545 0 2.71-1.16721 2.71-2.71475zm1.794 20.71018c-1.251-.2963-1.886-.7377-1.886-2.336h-.005v-14.65287l-6.819 1.96106v.26639l.041.00369c1.475.13156 1.879.64057 1.879 2.36763v12.6697h6.824v-.273zm17.473 0c-1.251-.2963-1.886-.7377-1.886-2.336v-14.65287l-6.493 1.89631v.26721l.039.0041c1.206.12705 1.555.66516 1.555 2.39995v9.2623c-.403.7972-1.157 1.2705-2.071 1.3025-1.482 0-2.299-1.0029-2.299-2.8238v-12.30816l-6.819 1.96106v.26598l.041.00369c1.476.13115 1.88.64016 1.88 2.36763v7.8389c-.004.5472.044 1.0936.142 1.632l.123.5348c.577 2.0721 2.09 3.1558 4.459 3.1558 2.008 0 3.767-1.2447 4.542-3.1923v2.705h6.819v-.273zm26.49.2796v-.2734l-.034-.0078c-1.357-.3135-1.885-.9045-1.885-2.1078v-9.9672c0-3.10777-1.743-4.96268-4.662-4.96268-2.127 0-3.922 1.23155-4.612 3.14999-.549-2.03278-2.128-3.14999-4.463-3.14999-2.05 0-3.657 1.08401-4.347 2.91516v-2.86352l-6.819 1.88073v.26803l.041.00369c1.458.12951 1.879.65328 1.879 2.33609v12.7787h6.363v-.273l-.034-.0082c-1.082-.2549-1.432-.7197-1.432-1.9123v-11.4246c.287-.67005.864-1.4639 2.005-1.4639 1.417 0 2.136.98361 2.136 2.9213v12.1607h6.364v-.273l-.034-.0082c-1.082-.2549-1.432-.7197-1.432-1.9123v-10.1639c.003-.38-.027-.7596-.09-1.1344.304-.72832.914-1.5902 2.102-1.5902 1.437 0 2.136.95533 2.136 2.9213v12.1607z"/></g></svg>