<svg height="38" viewBox="0 0 38 38" width="38" xmlns="http://www.w3.org/2000/svg">
  <style>
    path { fill: currentColor; }
    @media (prefers-color-scheme: dark) {
        path { fill: white; }
    }
  </style>
  <title>Twitter</title>
  <path d="m38 7.66960962c-1.39802.62253669-2.90073 1.04309226-4.47754 1.23229459 1.60949-.96851755 2.84582-2.50216262 3.42779-4.32971976-1.50651.8969945-3.1749 1.5481404-4.95083 1.8990802-1.42196-1.521057-3.44812-2.47126465-5.6905-2.47126465-4.3054 0-7.79627 3.50386686-7.79627 7.8257668 0 .6133817.06897 1.2107423.20178 1.7834989-6.47938-.3263359-12.22384-3.4420709-16.06906-8.17689729-.67108 1.1558126-1.05564 2.5000646-1.05564 3.9343403 0 2.71520599 1.37636 5.11056079 3.46826 6.51393849-1.27794-.0406251-2.48007-.3927092-3.53115-.9788168-.00076.0326145-.00076.0654197-.00076.0984157 0 3.7916756 2.68736 6.9547113 6.25385 7.6737564-.65417.178903-1.34292.2744578-2.0539.2744578-.50236 0-.99066-.0492078-1.4668-.1403759.99218 3.1090596 3.87125 5.3718584 7.28289 5.4347987-2.66817 2.099154-6.02965 3.3501399-9.6824 3.3501399-.62928 0-1.24982-.0370012-1.85972-.1094779 3.45021 2.2206478 7.54813 3.5164549 11.95081 3.5164549 14.33987 0 22.18174-11.9250869 22.18174-22.2669394 0-.3393054-.0076-.6767035-.02261-1.0125758 1.52323-1.1031716 2.84487-2.48156395 3.89006-4.05087518z" fill-rule="evenodd"/>
</svg>
