<svg fill="none" height="48" viewBox="0 0 108 48" width="108" xmlns="http://www.w3.org/2000/svg"><path clip-rule="evenodd" d="m105.175 22.6993c0-6.3893-4.481-10.4027-11.6238-10.4027-5.5523 0-9.8382 2.4723-11.9812 6.4535-.0974.2248-.1948.3211-.2923.3211-.1298 0-.1948-.1284-.2597-.4174-.8767-3.9171-3.4743-6.2609-7.3057-6.2609-1.9806 0-3.8313.6422-4.8054 1.3485-.1948.1285-.2923.1927-.3897.1927-.1298 0-.1948-.0963-.1948-.289l.9416-8.82939c.1299-1.28428-.5195-2.08695-1.7209-2.08695h-7.0783c-1.039 0-1.7858.67425-1.8832 1.73377l-2.8573 28.92837c-.1299 1.2521.487 1.9264 2.8573 1.9264 3.1495 0 5.325-1.4127 6.0718-4.0134.0649-.2568.1298-.321.2597-.321.0974 0 .1948.0963.2922.321.8767 2.3117 3.1171 3.9492 6.1692 3.9492 3.9938 0 7.1433-2.7612 8.7668-6.7425.0974-.2568.1948-.3853.3247-.3853.0974 0 .1623.0964.2273.289 1.3637 4.3344 5.3899 6.9672 11.1046 6.9672 7.9225-.0321 13.3771-5.1692 13.3771-12.6822zm-86.0439-9.7605h7.3706c1.1365 0 1.8508.7384 1.6884 2.0548l-1.4286 14.9297c-.5195 5.4582-1.9807 8.6689-4.3834 10.9164-2.5651 2.408-6.2666 3.6923-10.9422 3.6923-2.27289 0-4.7081-.3532-6.91603-.9953-1.23384-.3853-1.85076-1.188-1.68841-2.5686l.38964-3.2107c.12987-1.0595.71432-1.6374 1.68841-1.6374.22729 0 .48704.0321 1.23384.2247 1.29878.3211 2.6625.5137 3.79893.5137 3.70152 0 6.03932-1.4769 6.55882-4.1418l.0974-.5137c.065-.3211-.0324-.4174-.1299-.4174-.0974 0-.1948.0963-.2922.289-.8442 1.6053-3.0196 2.6649-5.7795 2.6649-2.5002 0-4.51331-.8669-5.81209-2.4723-1.23384-1.5411-1.81829-3.7565-1.39618-7.9946l.97408-9.5679c.09741-1.0595.84421-1.7337 1.88323-1.7337h7.11086c1.3312 0 1.8182.8026 1.7208 2.0869l-.9091 9.6c-.0974.9632.3896 1.509 1.1364 1.509.6494 0 1.2014-.5779 1.2988-1.4769l1.039-10.2742c.0974-.899.9092-1.4769 1.6884-1.4769zm26.625 0h7.3706c1.1689 0 1.8508.7384 1.8508 2.1511l-1.8183 18.5899c-.1299 1.2201-.9417 1.6696-2.5976 1.6696-2.2729 0-4.4483-.8348-5.3575-2.3759-.2922-.4816-.4221-1.1238-.4545-1.6696 0-.1926-.065-.2889-.1948-.2889-.1299 0-.1949.0963-.2923.2568-1.1364 2.4401-3.6366 4.0776-7.0783 4.0776-2.9547 0-5.1627-1.1559-6.3965-3.2428-.9416-1.5411-1.3313-3.596-1.039-6.4535l1.0715-10.9485c.0974-1.0595.8442-1.7337 1.8832-1.7337h7.0783c1.2988 0 1.8508.8026 1.7209 2.0869l-.9091 9.6c-.0974.9632.3896 1.509 1.1364 1.509s1.2014-.5779 1.2988-1.4769l1.039-10.2742c.0974-.899.8442-1.4769 1.6884-1.4769zm46.6593 13.132c1.2663 0 2.1755-1.3806 2.1755-3.2428 0-1.3806-.6494-2.2154-1.656-2.2475-1.2338 0-2.143 1.4127-2.143 3.2428 0 1.3806.6169 2.2475 1.6235 2.2475zm-25.5208-2.2481c0-1.8622.8767-3.2107 2.1105-3.2107 1.039 0 1.6884.8669 1.6884 2.2796 0 1.8622-.8767 3.2107-2.143 3.2107-1.0065 0-1.6559-.899-1.6559-2.2796z" fill="#fff" fill-rule="evenodd"/><path d="m94.5901 22.828c0 1.8622-.9091 3.2428-2.1755 3.2428-1.0065 0-1.6234-.8669-1.6234-2.2475 0-1.8301.9091-3.2428 2.143-3.2428 1.0065.0321 1.6559.8669 1.6559 2.2475zm-25.586-2.2154c-1.2338 0-2.1105 1.3485-2.1105 3.2107 0 1.3806.6494 2.2796 1.656 2.2796 1.2663 0 2.143-1.3485 2.143-3.2107 0-1.4127-.6494-2.2796-1.6885-2.2796zm38.9959 2.087c0 8.9899-6.721 15.315-16.2672 15.315-4.838 0-8.8317-1.6375-11.3968-4.5271-2.3053 2.7933-5.5198 4.3987-9.059 4.3987-2.4027 0-4.6107-.7706-6.2666-2.1512-1.591 1.4127-3.8314 2.1833-6.4939 2.1833-1.7534 0-3.2145-.3853-4.221-1.1238-.9741.7706-2.3054 1.1238-3.8964 1.1238-2.5001 0-4.8704-.7706-6.4939-2.1512-1.8183 1.3806-4.1885 2.1512-6.851 2.1512-3.5067 0-6.3316-1.2843-8.1174-3.5639-.8442 3.596-2.3053 6.2609-4.5782 8.3799-3.0846 2.8896-7.5654 4.4308-12.8904 4.4308-2.50014 0-5.32499-.4174-7.72773-1.1238-2.63003-.7705-3.993747-2.7933-3.7015212-5.4261l.3896342-3.2106c.194817-1.477.974087-2.6649 2.110517-3.3392-.03247-.0642-.09741-.1284-.16235-.1926-1.915698-2.3759-2.500149-5.3297-2.013106-9.9531l.974086-9.5679c.25975-2.5365 2.14298-4.1418 4.74054-4.1418h7.07833c1.2339 0 2.3054.3853 3.0846 1.0274.8118-.6421 1.8183-1.0274 2.9223-1.0274h7.3705c1.2014 0 2.2729.3853 3.0847 1.0595.8117-.6742 1.8832-1.0595 3.0846-1.0595h7.0783c1.2338 0 2.3053.3853 3.0846.9953.8117-.6421 1.8183-.9953 2.9223-.9953h7.3705c.7144 0 1.3637.1284 1.9482.3853l.6169-6.4214c.2598-2.53645 2.1105-4.1739 4.7406-4.1739h7.0783c3.0846 0 4.9029 1.99063 4.5782 5.07289l-.5195 4.81604c.7143-.09632 1.4287-.19264 2.1105-.19264 3.5392 0 6.3965 1.47691 8.2473 4.04551 2.8898-2.6649 6.9809-4.17394 11.624-4.17394 8.6365.03211 14.4165 5.23344 14.4165 13.13174zm-81.4984-9.7605h-7.3706c-.7793 0-1.591.5779-1.6884 1.4769l-1.039 10.2742c-.0974.899-.6494 1.4769-1.2988 1.4769-.7468 0-1.2339-.5458-1.1364-1.509l.9091-9.6c.0974-1.2842-.3896-2.0869-1.7209-2.0869h-7.1108c-1.03902 0-1.78582.6742-1.88323 1.7338l-.97408 9.5678c-.4221 4.2381.16235 6.4535 1.39619 7.9947 1.29878 1.6053 3.31188 2.4722 5.81202 2.4722 2.7599 0 4.9354-1.0595 5.7796-2.6649.0974-.1926.1948-.289.2922-.289s.1948.0964.1299.4174l-.0974.5137c-.5195 2.6649-2.8573 4.1418-6.55886 4.1418-1.13643 0-2.50015-.1926-3.79893-.5137-.7468-.1926-1.00655-.2247-1.23384-.2247-.97408 0-1.55853.5779-1.68841 1.6374l-.38964 3.2107c-.16234 1.3806.45458 2.1833 1.68842 2.5686 2.20792.6421 4.64314.9953 6.91596.9953 4.6756 0 8.3772-1.2843 10.9423-3.6923 2.4027-2.2475 3.8638-5.4582 4.3833-10.9164l1.4287-14.9297c.1623-1.3164-.552-2.0548-1.6884-2.0548zm26.625 0h-7.3706c-.8442 0-1.591.5779-1.6884 1.4769l-1.0391 10.2742c-.0974.899-.5519 1.4769-1.2987 1.4769s-1.2339-.5458-1.1365-1.509l.9092-9.6c.1299-1.2842-.4221-2.0869-1.7209-2.0869h-7.0783c-1.0391 0-1.7859.6742-1.8833 1.7338l-1.0715 10.9484c-.2922 2.8575.0974 4.9124 1.0391 6.4535 1.2338 2.087 3.4417 3.2428 6.3964 3.2428 3.4418 0 5.942-1.6374 7.0784-4.0776.0974-.1605.1623-.2568.2922-.2568s.1948.0963.1948.2889c.0325.5459.1624 1.188.4546 1.6696.9092 1.5411 3.0846 2.3759 5.3575 2.3759 1.6559 0 2.4677-.4495 2.5975-1.6695l1.8183-18.5899c0-1.4128-.6818-2.1512-1.8507-2.1512zm52.0484 9.7605c0-6.3893-4.481-10.4027-11.6239-10.4027-5.5523 0-9.8383 2.4723-11.9813 6.4535-.0974.2248-.1948.3211-.2922.3211-.1299 0-.1948-.1284-.2597-.4174-.8767-3.917-3.4743-6.2608-7.3057-6.2608-1.9806 0-3.8314.6421-4.8055 1.3485-.1948.1284-.2922.1926-.3896.1926-.1299 0-.1948-.0963-.1948-.289l.9416-8.82936c.1299-1.28428-.5195-2.08695-1.7209-2.08695h-7.0783c-1.0391 0-1.7859.67424-1.8833 1.73377l-2.8573 28.92834c-.1299 1.2522.4871 1.9264 2.8573 1.9264 3.1496 0 5.325-1.4127 6.0718-4.0134.065-.2568.1299-.321.2598-.321.0974 0 .1948.0963.2922.321.8767 2.3117 3.1171 3.9492 6.1692 3.9492 3.9938 0 7.1433-2.7612 8.7668-6.7425.0974-.2568.1948-.3852.3247-.3852.0974 0 .1623.0963.2273.2889 1.3637 4.3345 5.3899 6.9672 11.1045 6.9672 7.9226-.0321 13.3773-5.1692 13.3773-12.6822z" fill="#151400"/></svg>